<svg width="574" height="629" viewBox="0 0 574 629" fill="none" xmlns="http://www.w3.org/2000/svg">
<g id="Group 147">
<path id="Vector 1" d="M255.675 569C230.109 563.491 175.496 551.718 161.568 548.696L174.272 528.864C170.037 526.031 159.686 518.287 152.157 509.976C144.628 501.665 149.02 368.004 152.157 302.212L335.196 136L445.772 254.992L514 350.375L459.888 408.455H428.362L369.545 421.204L353.076 408.455L311.669 421.204V494.394L255.675 569Z" fill="#1B1B1B"/>
<g id="Group 140">
<path id="Vector" d="M344.448 359.556C343.16 358.736 338.162 355.56 337.104 350.051C336.96 349.295 336.684 347.422 338.57 341.437C340.365 335.766 342.556 328.821 348.555 321.836C351.701 318.171 352.19 318.805 353.841 316.194C357.838 309.859 355.52 305.253 357.366 299.558C359.966 291.52 369.744 284.779 377.923 285.006C384.152 285.18 384.876 289.263 401.418 299.855C405.939 302.746 409.419 304.706 416.102 308.469C435.795 319.55 439.131 319.48 439.891 323.022C440.753 327.03 436.963 329.391 412.283 352.425C404.754 359.451 402.862 361.33 398.772 362.819C390.093 365.989 386.872 361.83 370.871 361.336C356.44 360.888 351.5 364.04 344.437 359.556H344.448Z" fill="#494947"/>
<path id="bependa" d="M375.432 324.552C376.989 324.552 378.408 324.931 379.688 325.688C380.968 326.445 381.987 327.464 382.744 328.744C383.501 330.013 383.88 331.421 383.88 332.968C383.88 334.131 383.661 335.224 383.224 336.248C382.787 337.272 382.179 338.173 381.4 338.952C380.632 339.72 379.736 340.323 378.712 340.76C377.699 341.197 376.605 341.416 375.432 341.416C374.429 341.416 373.539 341.192 372.76 340.744C371.992 340.285 371.347 339.693 370.824 338.968V341H366.92V317H370.824V327C371.347 326.275 371.992 325.688 372.76 325.24C373.539 324.781 374.429 324.552 375.432 324.552ZM375.384 337.64C376.216 337.64 376.968 337.432 377.64 337.016C378.323 336.589 378.867 336.024 379.272 335.32C379.677 334.616 379.88 333.832 379.88 332.968C379.88 332.115 379.677 331.336 379.272 330.632C378.867 329.917 378.323 329.352 377.64 328.936C376.957 328.52 376.205 328.312 375.384 328.312C374.573 328.312 373.848 328.525 373.208 328.952C372.568 329.368 372.067 329.933 371.704 330.648C371.341 331.352 371.16 332.125 371.16 332.968C371.16 333.832 371.341 334.621 371.704 335.336C372.067 336.04 372.568 336.6 373.208 337.016C373.848 337.432 374.573 337.64 375.384 337.64ZM393.491 341.416C392.019 341.416 390.675 341.037 389.459 340.28C388.254 339.523 387.289 338.504 386.563 337.224C385.849 335.944 385.491 334.531 385.491 332.984C385.491 331.821 385.699 330.733 386.115 329.72C386.531 328.696 387.102 327.8 387.827 327.032C388.563 326.253 389.417 325.645 390.387 325.208C391.358 324.771 392.393 324.552 393.491 324.552C394.739 324.552 395.881 324.819 396.915 325.352C397.961 325.875 398.846 326.595 399.571 327.512C400.297 328.429 400.825 329.475 401.155 330.648C401.486 331.821 401.561 333.048 401.379 334.328H389.683C389.833 334.925 390.078 335.464 390.419 335.944C390.761 336.413 391.193 336.792 391.715 337.08C392.238 337.357 392.83 337.501 393.491 337.512C394.174 337.523 394.793 337.363 395.347 337.032C395.913 336.691 396.382 336.232 396.755 335.656L400.739 336.584C400.089 338.003 399.118 339.165 397.827 340.072C396.537 340.968 395.091 341.416 393.491 341.416ZM389.555 331.4H397.427C397.31 330.76 397.059 330.184 396.675 329.672C396.302 329.149 395.838 328.733 395.283 328.424C394.729 328.115 394.131 327.96 393.491 327.96C392.851 327.96 392.259 328.115 391.715 328.424C391.171 328.723 390.707 329.133 390.323 329.656C389.95 330.168 389.694 330.749 389.555 331.4ZM407.887 349H403.983V325H407.887V327.032C408.409 326.307 409.049 325.72 409.807 325.272C410.575 324.813 411.471 324.584 412.495 324.584C413.668 324.584 414.761 324.803 415.775 325.24C416.788 325.677 417.679 326.285 418.447 327.064C419.225 327.832 419.828 328.723 420.255 329.736C420.692 330.749 420.911 331.837 420.911 333C420.911 334.163 420.692 335.256 420.255 336.28C419.828 337.304 419.225 338.205 418.447 338.984C417.679 339.752 416.788 340.355 415.775 340.792C414.761 341.229 413.668 341.448 412.495 341.448C411.471 341.448 410.575 341.224 409.807 340.776C409.049 340.317 408.409 339.725 407.887 339V349ZM412.447 328.344C411.636 328.344 410.911 328.557 410.271 328.984C409.631 329.4 409.129 329.96 408.767 330.664C408.404 331.368 408.223 332.147 408.223 333C408.223 333.853 408.404 334.637 408.767 335.352C409.129 336.056 409.631 336.621 410.271 337.048C410.911 337.464 411.636 337.672 412.447 337.672C413.268 337.672 414.02 337.464 414.703 337.048C415.385 336.632 415.929 336.072 416.335 335.368C416.74 334.653 416.943 333.864 416.943 333C416.943 332.147 416.74 331.368 416.335 330.664C415.929 329.96 415.385 329.4 414.703 328.984C414.031 328.557 413.279 328.344 412.447 328.344ZM430.523 341.416C429.051 341.416 427.707 341.037 426.491 340.28C425.285 339.523 424.32 338.504 423.595 337.224C422.88 335.944 422.523 334.531 422.523 332.984C422.523 331.821 422.731 330.733 423.147 329.72C423.563 328.696 424.133 327.8 424.859 327.032C425.595 326.253 426.448 325.645 427.419 325.208C428.389 324.771 429.424 324.552 430.523 324.552C431.771 324.552 432.912 324.819 433.947 325.352C434.992 325.875 435.877 326.595 436.603 327.512C437.328 328.429 437.856 329.475 438.187 330.648C438.517 331.821 438.592 333.048 438.411 334.328H426.715C426.864 334.925 427.109 335.464 427.451 335.944C427.792 336.413 428.224 336.792 428.747 337.08C429.269 337.357 429.861 337.501 430.523 337.512C431.205 337.523 431.824 337.363 432.379 337.032C432.944 336.691 433.413 336.232 433.787 335.656L437.771 336.584C437.12 338.003 436.149 339.165 434.859 340.072C433.568 340.968 432.123 341.416 430.523 341.416ZM426.587 331.4H434.459C434.341 330.76 434.091 330.184 433.707 329.672C433.333 329.149 432.869 328.733 432.315 328.424C431.76 328.115 431.163 327.96 430.523 327.96C429.883 327.96 429.291 328.115 428.747 328.424C428.203 328.723 427.739 329.133 427.355 329.656C426.981 330.168 426.725 330.749 426.587 331.4ZM455.67 330.888V341H451.766V331.912C451.766 331.283 451.611 330.712 451.302 330.2C450.992 329.677 450.576 329.267 450.054 328.968C449.542 328.659 448.971 328.504 448.342 328.504C447.712 328.504 447.136 328.659 446.614 328.968C446.102 329.267 445.691 329.677 445.382 330.2C445.083 330.712 444.934 331.283 444.934 331.912V341H441.03L441.014 325H444.918L444.934 326.424C445.478 325.848 446.128 325.395 446.886 325.064C447.643 324.723 448.459 324.552 449.334 324.552C450.496 324.552 451.558 324.84 452.518 325.416C453.478 325.981 454.24 326.744 454.806 327.704C455.382 328.653 455.67 329.715 455.67 330.888ZM470.641 317H474.545V341H470.641V339C470.129 339.715 469.484 340.296 468.705 340.744C467.926 341.192 467.025 341.416 466.001 341.416C464.838 341.416 463.75 341.197 462.737 340.76C461.724 340.323 460.828 339.72 460.049 338.952C459.281 338.173 458.678 337.277 458.241 336.264C457.804 335.251 457.585 334.163 457.585 333C457.585 331.837 457.804 330.749 458.241 329.736C458.678 328.723 459.281 327.832 460.049 327.064C460.828 326.285 461.724 325.677 462.737 325.24C463.75 324.803 464.838 324.584 466.001 324.584C467.025 324.584 467.926 324.808 468.705 325.256C469.484 325.693 470.129 326.275 470.641 327V317ZM466.049 337.656C466.881 337.656 467.617 337.448 468.257 337.032C468.897 336.616 469.398 336.056 469.761 335.352C470.124 334.637 470.305 333.853 470.305 333C470.305 332.136 470.124 331.352 469.761 330.648C469.398 329.933 468.892 329.368 468.241 328.952C467.601 328.536 466.87 328.328 466.049 328.328C465.228 328.328 464.476 328.541 463.793 328.968C463.121 329.384 462.582 329.944 462.177 330.648C461.782 331.352 461.585 332.136 461.585 333C461.585 333.864 461.788 334.648 462.193 335.352C462.598 336.056 463.137 336.616 463.809 337.032C464.492 337.448 465.238 337.656 466.049 337.656ZM490.203 325H494.107V341H490.203L490.027 339.016C489.589 339.731 489.008 340.312 488.283 340.76C487.568 341.197 486.72 341.416 485.739 341.416C484.555 341.416 483.445 341.192 482.411 340.744C481.376 340.296 480.464 339.677 479.675 338.888C478.896 338.099 478.283 337.187 477.835 336.152C477.397 335.117 477.179 334.008 477.179 332.824C477.179 331.683 477.387 330.611 477.803 329.608C478.229 328.605 478.821 327.725 479.579 326.968C480.336 326.211 481.211 325.619 482.203 325.192C483.195 324.765 484.261 324.552 485.403 324.552C486.459 324.552 487.403 324.787 488.235 325.256C489.077 325.725 489.792 326.323 490.379 327.048L490.203 325ZM485.643 337.656C486.475 337.656 487.211 337.448 487.851 337.032C488.491 336.616 488.992 336.056 489.355 335.352C489.717 334.637 489.899 333.853 489.899 333C489.899 332.136 489.717 331.352 489.355 330.648C488.992 329.933 488.485 329.368 487.835 328.952C487.195 328.536 486.464 328.328 485.643 328.328C484.821 328.328 484.069 328.541 483.387 328.968C482.715 329.384 482.176 329.944 481.771 330.648C481.376 331.352 481.179 332.136 481.179 333C481.179 333.864 481.381 334.648 481.787 335.352C482.192 336.056 482.731 336.616 483.403 337.032C484.085 337.448 484.832 337.656 485.643 337.656Z" fill="white"/>
</g>
<g id="Group 141">
<path id="Vector_2" d="M318.611 432.785V514.766L258 589.831L288.308 612.943C288.308 612.943 340.598 630.131 347.732 628.941C354.865 627.751 371.128 626.568 379.337 612.943C387.547 599.318 440.431 521.677 440.431 521.677L482.62 454.116L485 426.855L445.185 415C445.185 415 377.441 427.447 375.66 427.447C373.88 427.447 366.746 422.114 366.746 422.114L318.616 432.78L318.611 432.785Z" fill="#1B1B1B"/>
<path id="new bell" d="M355.576 509.888V520H351.672V510.912C351.672 510.283 351.517 509.712 351.208 509.2C350.899 508.677 350.483 508.267 349.96 507.968C349.448 507.659 348.877 507.504 348.248 507.504C347.619 507.504 347.043 507.659 346.52 507.968C346.008 508.267 345.597 508.677 345.288 509.2C344.989 509.712 344.84 510.283 344.84 510.912V520H340.936L340.92 504H344.824L344.84 505.424C345.384 504.848 346.035 504.395 346.792 504.064C347.549 503.723 348.365 503.552 349.24 503.552C350.403 503.552 351.464 503.84 352.424 504.416C353.384 504.981 354.147 505.744 354.712 506.704C355.288 507.653 355.576 508.715 355.576 509.888ZM365.491 520.416C364.019 520.416 362.675 520.037 361.459 519.28C360.254 518.523 359.289 517.504 358.563 516.224C357.849 514.944 357.491 513.531 357.491 511.984C357.491 510.821 357.699 509.733 358.115 508.72C358.531 507.696 359.102 506.8 359.827 506.032C360.563 505.253 361.417 504.645 362.387 504.208C363.358 503.771 364.393 503.552 365.491 503.552C366.739 503.552 367.881 503.819 368.915 504.352C369.961 504.875 370.846 505.595 371.571 506.512C372.297 507.429 372.825 508.475 373.155 509.648C373.486 510.821 373.561 512.048 373.379 513.328H361.683C361.833 513.925 362.078 514.464 362.419 514.944C362.761 515.413 363.193 515.792 363.715 516.08C364.238 516.357 364.83 516.501 365.491 516.512C366.174 516.523 366.793 516.363 367.347 516.032C367.913 515.691 368.382 515.232 368.755 514.656L372.739 515.584C372.089 517.003 371.118 518.165 369.827 519.072C368.537 519.968 367.091 520.416 365.491 520.416ZM361.555 510.4H369.427C369.31 509.76 369.059 509.184 368.675 508.672C368.302 508.149 367.838 507.733 367.283 507.424C366.729 507.115 366.131 506.96 365.491 506.96C364.851 506.96 364.259 507.115 363.715 507.424C363.171 507.723 362.707 508.133 362.323 508.656C361.95 509.168 361.694 509.749 361.555 510.4ZM383.489 520H379.617L374.273 504H378.097L381.569 514.352L385.025 504H388.881L392.337 514.352L395.809 504H399.633L394.289 520H390.417L386.945 509.6L383.489 520ZM418.713 503.552C420.271 503.552 421.689 503.931 422.969 504.688C424.249 505.445 425.268 506.464 426.025 507.744C426.783 509.013 427.161 510.421 427.161 511.968C427.161 513.131 426.943 514.224 426.505 515.248C426.068 516.272 425.46 517.173 424.681 517.952C423.913 518.72 423.017 519.323 421.993 519.76C420.98 520.197 419.887 520.416 418.713 520.416C417.711 520.416 416.82 520.192 416.041 519.744C415.273 519.285 414.628 518.693 414.105 517.968V520H410.201V496H414.105V506C414.628 505.275 415.273 504.688 416.041 504.24C416.82 503.781 417.711 503.552 418.713 503.552ZM418.665 516.64C419.497 516.64 420.249 516.432 420.921 516.016C421.604 515.589 422.148 515.024 422.553 514.32C422.959 513.616 423.161 512.832 423.161 511.968C423.161 511.115 422.959 510.336 422.553 509.632C422.148 508.917 421.604 508.352 420.921 507.936C420.239 507.52 419.487 507.312 418.665 507.312C417.855 507.312 417.129 507.525 416.489 507.952C415.849 508.368 415.348 508.933 414.985 509.648C414.623 510.352 414.441 511.125 414.441 511.968C414.441 512.832 414.623 513.621 414.985 514.336C415.348 515.04 415.849 515.6 416.489 516.016C417.129 516.432 417.855 516.64 418.665 516.64ZM436.773 520.416C435.301 520.416 433.957 520.037 432.741 519.28C431.535 518.523 430.57 517.504 429.845 516.224C429.13 514.944 428.773 513.531 428.773 511.984C428.773 510.821 428.981 509.733 429.397 508.72C429.813 507.696 430.383 506.8 431.109 506.032C431.845 505.253 432.698 504.645 433.669 504.208C434.639 503.771 435.674 503.552 436.773 503.552C438.021 503.552 439.162 503.819 440.197 504.352C441.242 504.875 442.127 505.595 442.853 506.512C443.578 507.429 444.106 508.475 444.437 509.648C444.767 510.821 444.842 512.048 444.661 513.328H432.965C433.114 513.925 433.359 514.464 433.701 514.944C434.042 515.413 434.474 515.792 434.997 516.08C435.519 516.357 436.111 516.501 436.773 516.512C437.455 516.523 438.074 516.363 438.629 516.032C439.194 515.691 439.663 515.232 440.037 514.656L444.021 515.584C443.37 517.003 442.399 518.165 441.109 519.072C439.818 519.968 438.373 520.416 436.773 520.416ZM432.837 510.4H440.709C440.591 509.76 440.341 509.184 439.957 508.672C439.583 508.149 439.119 507.733 438.565 507.424C438.01 507.115 437.413 506.96 436.773 506.96C436.133 506.96 435.541 507.115 434.997 507.424C434.453 507.723 433.989 508.133 433.605 508.656C433.231 509.168 432.975 509.749 432.837 510.4ZM447.014 520V496H450.918V520H447.014ZM454.764 520V496H458.668V520H454.764Z" fill="white"/>
</g>
<g id="Group 139">
<path id="Vector_3" d="M144.652 303L129.88 313.22H121.822C121.822 313.22 55.582 352.314 52 405.63V464.276L151.81 566.013C151.81 566.013 155.392 568.234 157.63 566.013C159.868 563.791 163 555.793 163 554.464V545.132L145.99 532.249L138.826 492.262L141.514 480.714C141.514 480.714 136.144 462.942 136.144 461.608C136.144 460.274 137.488 439.492 142.858 435.002L146.44 420.734L144.652 303Z" fill="#1B1B1B"/>
<path id="Bonandjo" d="M1.92 446V423.6H10.08C11.264 423.6 12.3307 423.845 13.28 424.336C14.24 424.816 14.9973 425.509 15.552 426.416C16.1173 427.312 16.4 428.373 16.4 429.6C16.4 430.144 16.32 430.693 16.16 431.248C16 431.803 15.7547 432.304 15.424 432.752C15.0933 433.189 14.6667 433.515 14.144 433.728C14.8373 433.899 15.4027 434.208 15.84 434.656C16.2773 435.104 16.6187 435.632 16.864 436.24C17.1093 436.837 17.2747 437.451 17.36 438.08C17.456 438.699 17.504 439.275 17.504 439.808C17.504 440.992 17.2107 442.048 16.624 442.976C16.0373 443.904 15.248 444.64 14.256 445.184C13.2747 445.728 12.1867 446 10.992 446H1.92ZM5.824 442.656H10.592C11.232 442.656 11.808 442.501 12.32 442.192C12.832 441.883 13.2427 441.456 13.552 440.912C13.8613 440.368 14.016 439.749 14.016 439.056C14.016 438.459 13.8613 437.893 13.552 437.36C13.2427 436.827 12.832 436.395 12.32 436.064C11.808 435.733 11.232 435.568 10.592 435.568H5.824V442.656ZM5.824 432.272H9.632C10.4213 432.272 11.0933 432.027 11.648 431.536C12.2133 431.045 12.496 430.395 12.496 429.584C12.496 428.72 12.2133 428.069 11.648 427.632C11.0933 427.184 10.4213 426.96 9.632 426.96H5.824V432.272ZM26.8975 446.416C25.4255 446.416 24.0815 446.037 22.8655 445.28C21.6602 444.523 20.6948 443.509 19.9695 442.24C19.2548 440.96 18.8975 439.547 18.8975 438C18.8975 436.827 19.1055 435.733 19.5215 434.72C19.9375 433.696 20.5082 432.8 21.2335 432.032C21.9695 431.253 22.8228 430.645 23.7935 430.208C24.7642 429.771 25.7988 429.552 26.8975 429.552C28.3695 429.552 29.7082 429.931 30.9135 430.688C32.1295 431.445 33.0948 432.464 33.8095 433.744C34.5348 435.024 34.8975 436.443 34.8975 438C34.8975 439.163 34.6895 440.251 34.2735 441.264C33.8575 442.277 33.2815 443.173 32.5455 443.952C31.8202 444.72 30.9722 445.323 30.0015 445.76C29.0415 446.197 28.0068 446.416 26.8975 446.416ZM26.8975 442.512C27.6762 442.512 28.3748 442.304 28.9935 441.888C29.6122 441.472 30.0975 440.923 30.4495 440.24C30.8122 439.557 30.9935 438.811 30.9935 438C30.9935 437.168 30.8068 436.411 30.4335 435.728C30.0708 435.035 29.5748 434.485 28.9455 434.08C28.3268 433.664 27.6442 433.456 26.8975 433.456C26.1295 433.456 25.4362 433.664 24.8175 434.08C24.1988 434.496 23.7082 435.051 23.3455 435.744C22.9828 436.437 22.8015 437.189 22.8015 438C22.8015 438.843 22.9882 439.605 23.3615 440.288C23.7348 440.971 24.2308 441.515 24.8495 441.92C25.4788 442.315 26.1615 442.512 26.8975 442.512ZM52.0448 435.888V446H48.1408V436.912C48.1408 436.283 47.9861 435.712 47.6768 435.2C47.3674 434.677 46.9514 434.267 46.4288 433.968C45.9168 433.659 45.3461 433.504 44.7168 433.504C44.0874 433.504 43.5114 433.659 42.9888 433.968C42.4768 434.267 42.0661 434.677 41.7568 435.2C41.4581 435.712 41.3088 436.283 41.3088 436.912V446H37.4048L37.3888 430H41.2928L41.3088 431.424C41.8528 430.848 42.5034 430.395 43.2608 430.064C44.0181 429.723 44.8341 429.552 45.7088 429.552C46.8714 429.552 47.9328 429.84 48.8928 430.416C49.8528 430.981 50.6154 431.744 51.1808 432.704C51.7568 433.653 52.0448 434.715 52.0448 435.888ZM66.984 430H70.888V446H66.984L66.808 444.016C66.3707 444.731 65.7893 445.312 65.064 445.76C64.3493 446.197 63.5013 446.416 62.52 446.416C61.336 446.416 60.2267 446.192 59.192 445.744C58.1573 445.296 57.2453 444.677 56.456 443.888C55.6773 443.099 55.064 442.187 54.616 441.152C54.1787 440.117 53.96 439.008 53.96 437.824C53.96 436.683 54.168 435.611 54.584 434.608C55.0107 433.605 55.6027 432.725 56.36 431.968C57.1173 431.211 57.992 430.619 58.984 430.192C59.976 429.765 61.0427 429.552 62.184 429.552C63.24 429.552 64.184 429.787 65.016 430.256C65.8587 430.725 66.5733 431.323 67.16 432.048L66.984 430ZM62.424 442.656C63.256 442.656 63.992 442.448 64.632 442.032C65.272 441.616 65.7733 441.056 66.136 440.352C66.4987 439.637 66.68 438.853 66.68 438C66.68 437.136 66.4987 436.352 66.136 435.648C65.7733 434.933 65.2667 434.368 64.616 433.952C63.976 433.536 63.2453 433.328 62.424 433.328C61.6027 433.328 60.8507 433.541 60.168 433.968C59.496 434.384 58.9573 434.944 58.552 435.648C58.1573 436.352 57.96 437.136 57.96 438C57.96 438.864 58.1627 439.648 58.568 440.352C58.9733 441.056 59.512 441.616 60.184 442.032C60.8667 442.448 61.6133 442.656 62.424 442.656ZM88.7323 435.888V446H84.8283V436.912C84.8283 436.283 84.6736 435.712 84.3643 435.2C84.0549 434.677 83.6389 434.267 83.1163 433.968C82.6043 433.659 82.0336 433.504 81.4043 433.504C80.7749 433.504 80.1989 433.659 79.6763 433.968C79.1643 434.267 78.7536 434.677 78.4443 435.2C78.1456 435.712 77.9963 436.283 77.9963 436.912V446H74.0923L74.0763 430H77.9803L77.9963 431.424C78.5403 430.848 79.1909 430.395 79.9483 430.064C80.7056 429.723 81.5216 429.552 82.3963 429.552C83.5589 429.552 84.6203 429.84 85.5803 430.416C86.5403 430.981 87.3029 431.744 87.8683 432.704C88.4443 433.653 88.7323 434.715 88.7323 435.888ZM103.704 422H107.608V446H103.704V444C103.192 444.715 102.546 445.296 101.768 445.744C100.989 446.192 100.088 446.416 99.0635 446.416C97.9008 446.416 96.8128 446.197 95.7995 445.76C94.7862 445.323 93.8902 444.72 93.1115 443.952C92.3435 443.173 91.7408 442.277 91.3035 441.264C90.8662 440.251 90.6475 439.163 90.6475 438C90.6475 436.837 90.8662 435.749 91.3035 434.736C91.7408 433.723 92.3435 432.832 93.1115 432.064C93.8902 431.285 94.7862 430.677 95.7995 430.24C96.8128 429.803 97.9008 429.584 99.0635 429.584C100.088 429.584 100.989 429.808 101.768 430.256C102.546 430.693 103.192 431.275 103.704 432V422ZM99.1115 442.656C99.9435 442.656 100.68 442.448 101.32 442.032C101.96 441.616 102.461 441.056 102.824 440.352C103.186 439.637 103.368 438.853 103.368 438C103.368 437.136 103.186 436.352 102.824 435.648C102.461 434.933 101.954 434.368 101.304 433.952C100.664 433.536 99.9328 433.328 99.1115 433.328C98.2902 433.328 97.5382 433.541 96.8555 433.968C96.1835 434.384 95.6448 434.944 95.2395 435.648C94.8448 436.352 94.6475 437.136 94.6475 438C94.6475 438.864 94.8502 439.648 95.2555 440.352C95.6608 441.056 96.1995 441.616 96.8715 442.032C97.5542 442.448 98.3008 442.656 99.1115 442.656ZM108.97 454V450.096C109.578 450.096 110.127 449.952 110.618 449.664C111.109 449.387 111.498 449.003 111.786 448.512C112.074 448.032 112.218 447.493 112.218 446.896V430H116.122V446.896C116.122 448.197 115.802 449.387 115.162 450.464C114.533 451.541 113.674 452.4 112.586 453.04C111.509 453.68 110.303 454 108.97 454ZM114.202 427.936C113.626 427.936 113.141 427.749 112.746 427.376C112.351 426.992 112.154 426.512 112.154 425.936C112.154 425.371 112.351 424.896 112.746 424.512C113.141 424.128 113.621 423.936 114.186 423.936C114.751 423.936 115.226 424.128 115.61 424.512C116.005 424.896 116.202 425.371 116.202 425.936C116.202 426.512 116.01 426.992 115.626 427.376C115.242 427.749 114.767 427.936 114.202 427.936ZM126.616 446.416C125.144 446.416 123.8 446.037 122.584 445.28C121.379 444.523 120.414 443.509 119.688 442.24C118.974 440.96 118.616 439.547 118.616 438C118.616 436.827 118.824 435.733 119.24 434.72C119.656 433.696 120.227 432.8 120.952 432.032C121.688 431.253 122.542 430.645 123.512 430.208C124.483 429.771 125.518 429.552 126.616 429.552C128.088 429.552 129.427 429.931 130.632 430.688C131.848 431.445 132.814 432.464 133.528 433.744C134.254 435.024 134.616 436.443 134.616 438C134.616 439.163 134.408 440.251 133.992 441.264C133.576 442.277 133 443.173 132.264 443.952C131.539 444.72 130.691 445.323 129.72 445.76C128.76 446.197 127.726 446.416 126.616 446.416ZM126.616 442.512C127.395 442.512 128.094 442.304 128.712 441.888C129.331 441.472 129.816 440.923 130.168 440.24C130.531 439.557 130.712 438.811 130.712 438C130.712 437.168 130.526 436.411 130.152 435.728C129.79 435.035 129.294 434.485 128.664 434.08C128.046 433.664 127.363 433.456 126.616 433.456C125.848 433.456 125.155 433.664 124.536 434.08C123.918 434.496 123.427 435.051 123.064 435.744C122.702 436.437 122.52 437.189 122.52 438C122.52 438.843 122.707 439.605 123.08 440.288C123.454 440.971 123.95 441.515 124.568 441.92C125.198 442.315 125.88 442.512 126.616 442.512Z" fill="white"/>
</g>
<path id="akwa_city" d="M331.792 139.012L161.434 302.192C161.434 302.192 150.788 296.872 152.114 424.577H164.538L163.652 433H180.512L222.66 411.713L308.729 305.29L331.798 277.351L368.617 246.755L401 217.045C401 217.045 365.507 163.697 331.792 139V139.012Z" fill="#FFF455"/>
<path id="Akwa" d="M222.408 273.6H226.904L235.048 296H230.904L229.464 292.032H219.864L218.424 296H214.28L222.408 273.6ZM221.288 288.128H228.024L224.648 278.896L221.288 288.128ZM252.021 296H247.525L243.877 289.712L241.637 292.384V296H237.733V272H241.637V286.32L246.933 280H252.037L246.549 286.544L252.021 296ZM262.614 296H258.742L253.398 280H257.222L260.694 290.352L264.15 280H268.006L271.462 290.352L274.934 280H278.758L273.414 296H269.542L266.07 285.6L262.614 296ZM292.578 280H296.482V296H292.578L292.402 294.016C291.964 294.731 291.383 295.312 290.658 295.76C289.943 296.197 289.095 296.416 288.114 296.416C286.93 296.416 285.82 296.192 284.786 295.744C283.751 295.296 282.839 294.677 282.05 293.888C281.271 293.099 280.658 292.187 280.21 291.152C279.772 290.117 279.554 289.008 279.554 287.824C279.554 286.683 279.762 285.611 280.178 284.608C280.604 283.605 281.196 282.725 281.954 281.968C282.711 281.211 283.586 280.619 284.578 280.192C285.57 279.765 286.636 279.552 287.778 279.552C288.834 279.552 289.778 279.787 290.61 280.256C291.452 280.725 292.167 281.323 292.754 282.048L292.578 280ZM288.018 292.656C288.85 292.656 289.586 292.448 290.226 292.032C290.866 291.616 291.367 291.056 291.73 290.352C292.092 289.637 292.274 288.853 292.274 288C292.274 287.136 292.092 286.352 291.73 285.648C291.367 284.933 290.86 284.368 290.21 283.952C289.57 283.536 288.839 283.328 288.018 283.328C287.196 283.328 286.444 283.541 285.762 283.968C285.09 284.384 284.551 284.944 284.146 285.648C283.751 286.352 283.554 287.136 283.554 288C283.554 288.864 283.756 289.648 284.162 290.352C284.567 291.056 285.106 291.616 285.778 292.032C286.46 292.448 287.207 292.656 288.018 292.656Z" fill="black"/>
<g id="Group 138">
<path id="deido_city" d="M494.413 0.0057644L574 71.6036C574 71.6036 541.575 90.5387 534.204 131.37L519.761 145.571L489.102 220.721L454.911 258C454.911 258 418.359 200.604 387.112 180.481L337 131.961L412.892 68.3357L494.407 0L494.413 0.0057644Z" fill="#1B1B1B"/>
<path id="Deido" d="M414.92 141V118.6H422.344C423.891 118.6 425.336 118.893 426.68 119.48C428.035 120.056 429.224 120.861 430.248 121.896C431.283 122.92 432.088 124.109 432.664 125.464C433.251 126.808 433.544 128.253 433.544 129.8C433.544 131.347 433.251 132.797 432.664 134.152C432.088 135.496 431.283 136.685 430.248 137.72C429.224 138.744 428.035 139.549 426.68 140.136C425.336 140.712 423.891 141 422.344 141H414.92ZM418.824 137.096H422.344C423.336 137.096 424.269 136.909 425.144 136.536C426.029 136.152 426.808 135.629 427.48 134.968C428.152 134.296 428.68 133.523 429.064 132.648C429.448 131.763 429.64 130.813 429.64 129.8C429.64 128.787 429.448 127.843 429.064 126.968C428.68 126.093 428.152 125.32 427.48 124.648C426.808 123.976 426.035 123.453 425.16 123.08C424.285 122.696 423.347 122.504 422.344 122.504H418.824V137.096ZM442.96 141.416C441.488 141.416 440.144 141.037 438.928 140.28C437.723 139.523 436.757 138.504 436.032 137.224C435.317 135.944 434.96 134.531 434.96 132.984C434.96 131.821 435.168 130.733 435.584 129.72C436 128.696 436.571 127.8 437.296 127.032C438.032 126.253 438.885 125.645 439.856 125.208C440.827 124.771 441.861 124.552 442.96 124.552C444.208 124.552 445.349 124.819 446.384 125.352C447.429 125.875 448.315 126.595 449.04 127.512C449.765 128.429 450.293 129.475 450.624 130.648C450.955 131.821 451.029 133.048 450.848 134.328H439.152C439.301 134.925 439.547 135.464 439.888 135.944C440.229 136.413 440.661 136.792 441.184 137.08C441.707 137.357 442.299 137.501 442.96 137.512C443.643 137.523 444.261 137.363 444.816 137.032C445.381 136.691 445.851 136.232 446.224 135.656L450.208 136.584C449.557 138.003 448.587 139.165 447.296 140.072C446.005 140.968 444.56 141.416 442.96 141.416ZM439.024 131.4H446.896C446.779 130.76 446.528 130.184 446.144 129.672C445.771 129.149 445.307 128.733 444.752 128.424C444.197 128.115 443.6 127.96 442.96 127.96C442.32 127.96 441.728 128.115 441.184 128.424C440.64 128.723 440.176 129.133 439.792 129.656C439.419 130.168 439.163 130.749 439.024 131.4ZM453.108 125H457.012V141H453.108V125ZM455.092 122.936C454.516 122.936 454.03 122.749 453.636 122.376C453.241 121.992 453.044 121.512 453.044 120.936C453.044 120.371 453.241 119.896 453.636 119.512C454.03 119.128 454.51 118.936 455.076 118.936C455.641 118.936 456.116 119.128 456.5 119.512C456.894 119.896 457.092 120.371 457.092 120.936C457.092 121.512 456.9 121.992 456.516 122.376C456.132 122.749 455.657 122.936 455.092 122.936ZM472.579 117H476.483V141H472.579V139C472.067 139.715 471.421 140.296 470.643 140.744C469.864 141.192 468.963 141.416 467.939 141.416C466.776 141.416 465.688 141.197 464.675 140.76C463.661 140.323 462.765 139.72 461.987 138.952C461.219 138.173 460.616 137.277 460.179 136.264C459.741 135.251 459.523 134.163 459.523 133C459.523 131.837 459.741 130.749 460.179 129.736C460.616 128.723 461.219 127.832 461.987 127.064C462.765 126.285 463.661 125.677 464.675 125.24C465.688 124.803 466.776 124.584 467.939 124.584C468.963 124.584 469.864 124.808 470.643 125.256C471.421 125.693 472.067 126.275 472.579 127V117ZM467.987 137.656C468.819 137.656 469.555 137.448 470.195 137.032C470.835 136.616 471.336 136.056 471.699 135.352C472.061 134.637 472.243 133.853 472.243 133C472.243 132.136 472.061 131.352 471.699 130.648C471.336 129.933 470.829 129.368 470.179 128.952C469.539 128.536 468.808 128.328 467.987 128.328C467.165 128.328 466.413 128.541 465.731 128.968C465.059 129.384 464.52 129.944 464.115 130.648C463.72 131.352 463.523 132.136 463.523 133C463.523 133.864 463.725 134.648 464.131 135.352C464.536 136.056 465.075 136.616 465.747 137.032C466.429 137.448 467.176 137.656 467.987 137.656ZM487.116 141.416C485.644 141.416 484.3 141.037 483.084 140.28C481.879 139.523 480.914 138.509 480.188 137.24C479.474 135.96 479.116 134.547 479.116 133C479.116 131.827 479.324 130.733 479.74 129.72C480.156 128.696 480.727 127.8 481.452 127.032C482.188 126.253 483.042 125.645 484.012 125.208C484.983 124.771 486.018 124.552 487.116 124.552C488.588 124.552 489.927 124.931 491.132 125.688C492.348 126.445 493.314 127.464 494.028 128.744C494.754 130.024 495.116 131.443 495.116 133C495.116 134.163 494.908 135.251 494.492 136.264C494.076 137.277 493.5 138.173 492.764 138.952C492.039 139.72 491.191 140.323 490.22 140.76C489.26 141.197 488.226 141.416 487.116 141.416ZM487.116 137.512C487.895 137.512 488.594 137.304 489.212 136.888C489.831 136.472 490.316 135.923 490.668 135.24C491.031 134.557 491.212 133.811 491.212 133C491.212 132.168 491.026 131.411 490.652 130.728C490.29 130.035 489.794 129.485 489.164 129.08C488.546 128.664 487.863 128.456 487.116 128.456C486.348 128.456 485.655 128.664 485.036 129.08C484.418 129.496 483.927 130.051 483.564 130.744C483.202 131.437 483.02 132.189 483.02 133C483.02 133.843 483.207 134.605 483.58 135.288C483.954 135.971 484.45 136.515 485.068 136.92C485.698 137.315 486.38 137.512 487.116 137.512Z" fill="white"/>
</g>
<g id="Group 137">
<path id="Vector_6" d="M108.558 98.8325L123.39 116.397L139.112 121.458L131.692 146.164C131.692 146.164 129.316 154.798 131.1 157.474C132.883 160.149 137.961 158.96 132.901 175.93C132.901 175.93 130.804 183.078 136.741 183.672C136.741 183.672 146.234 178.017 150.092 179.504C150.092 179.504 156.913 182.186 156.32 201.832L183.319 206L206.756 199.453L229.896 187.246C229.896 187.246 248.29 190.819 249.179 190.819C250.068 190.819 256 183.975 256 183.975V175.936C256 175.936 243.834 162.242 243.834 161.053C243.834 159.864 235.822 152.419 235.822 152.419L231.668 128.902C231.668 128.902 228.107 113.424 204.077 101.514L182.273 92.8804L167.586 98.8325L163.432 86.3278L153.938 85.1385C153.938 85.1385 121.304 55.372 80.955 50.0087C80.955 50.0087 58.7033 49.4141 46.8395 58.0479C46.8395 58.0479 17.767 92.5772 20.1375 104.19C20.1375 104.19 22.81 122.647 34.3774 130.983L43.5744 135.152L51.2899 135.449L52.4751 139.914L61.3758 142.596L75.912 142.001C75.912 142.001 80.955 139.022 81.5476 136.941C82.1402 134.86 78.8751 111.343 86.2942 108.067L92.2261 107.472L97.5654 101.817L108.54 98.8383L108.558 98.8325Z" fill="#1B1B1B"/>
<path id="bonaberi" d="M51.432 78.552C52.9893 78.552 54.408 78.9307 55.688 79.688C56.968 80.4453 57.9867 81.464 58.744 82.744C59.5013 84.0133 59.88 85.4213 59.88 86.968C59.88 88.1307 59.6613 89.224 59.224 90.248C58.7867 91.272 58.1787 92.1733 57.4 92.952C56.632 93.72 55.736 94.3227 54.712 94.76C53.6987 95.1973 52.6053 95.416 51.432 95.416C50.4293 95.416 49.5387 95.192 48.76 94.744C47.992 94.2853 47.3467 93.6933 46.824 92.968V95H42.92V71H46.824V81C47.3467 80.2747 47.992 79.688 48.76 79.24C49.5387 78.7813 50.4293 78.552 51.432 78.552ZM51.384 91.64C52.216 91.64 52.968 91.432 53.64 91.016C54.3227 90.5893 54.8667 90.024 55.272 89.32C55.6773 88.616 55.88 87.832 55.88 86.968C55.88 86.1147 55.6773 85.336 55.272 84.632C54.8667 83.9173 54.3227 83.352 53.64 82.936C52.9573 82.52 52.2053 82.312 51.384 82.312C50.5733 82.312 49.848 82.5253 49.208 82.952C48.568 83.368 48.0667 83.9333 47.704 84.648C47.3413 85.352 47.16 86.1253 47.16 86.968C47.16 87.832 47.3413 88.6213 47.704 89.336C48.0667 90.04 48.568 90.6 49.208 91.016C49.848 91.432 50.5733 91.64 51.384 91.64ZM69.4913 95.416C68.0193 95.416 66.6753 95.0373 65.4593 94.28C64.2539 93.5227 63.2886 92.5093 62.5633 91.24C61.8486 89.96 61.4913 88.5467 61.4913 87C61.4913 85.8267 61.6993 84.7333 62.1153 83.72C62.5313 82.696 63.1019 81.8 63.8273 81.032C64.5633 80.2533 65.4166 79.6453 66.3873 79.208C67.3579 78.7707 68.3926 78.552 69.4913 78.552C70.9633 78.552 72.3019 78.9307 73.5073 79.688C74.7233 80.4453 75.6886 81.464 76.4033 82.744C77.1286 84.024 77.4913 85.4427 77.4913 87C77.4913 88.1627 77.2833 89.2507 76.8673 90.264C76.4513 91.2773 75.8753 92.1733 75.1393 92.952C74.4139 93.72 73.5659 94.3227 72.5953 94.76C71.6353 95.1973 70.6006 95.416 69.4913 95.416ZM69.4913 91.512C70.2699 91.512 70.9686 91.304 71.5873 90.888C72.2059 90.472 72.6913 89.9227 73.0433 89.24C73.4059 88.5573 73.5873 87.8107 73.5873 87C73.5873 86.168 73.4006 85.4107 73.0273 84.728C72.6646 84.0347 72.1686 83.4853 71.5393 83.08C70.9206 82.664 70.2379 82.456 69.4913 82.456C68.7233 82.456 68.0299 82.664 67.4113 83.08C66.7926 83.496 66.3019 84.0507 65.9393 84.744C65.5766 85.4373 65.3953 86.1893 65.3953 87C65.3953 87.8427 65.5819 88.6053 65.9553 89.288C66.3286 89.9707 66.8246 90.5147 67.4433 90.92C68.0726 91.3147 68.7553 91.512 69.4913 91.512ZM94.6385 84.888V95H90.7345V85.912C90.7345 85.2827 90.5798 84.712 90.2705 84.2C89.9612 83.6773 89.5452 83.2667 89.0225 82.968C88.5105 82.6587 87.9398 82.504 87.3105 82.504C86.6812 82.504 86.1052 82.6587 85.5825 82.968C85.0705 83.2667 84.6598 83.6773 84.3505 84.2C84.0518 84.712 83.9025 85.2827 83.9025 85.912V95H79.9985L79.9825 79H83.8865L83.9025 80.424C84.4465 79.848 85.0972 79.3947 85.8545 79.064C86.6118 78.7227 87.4278 78.552 88.3025 78.552C89.4652 78.552 90.5265 78.84 91.4865 79.416C92.4465 79.9813 93.2092 80.744 93.7745 81.704C94.3505 82.6533 94.6385 83.7147 94.6385 84.888ZM109.578 79H113.482V95H109.578L109.402 93.016C108.964 93.7307 108.383 94.312 107.658 94.76C106.943 95.1973 106.095 95.416 105.114 95.416C103.93 95.416 102.82 95.192 101.786 94.744C100.751 94.296 99.8391 93.6773 99.0498 92.888C98.2711 92.0987 97.6578 91.1867 97.2098 90.152C96.7724 89.1173 96.5538 88.008 96.5538 86.824C96.5538 85.6827 96.7618 84.6107 97.1778 83.608C97.6044 82.6053 98.1964 81.7253 98.9538 80.968C99.7111 80.2107 100.586 79.6187 101.578 79.192C102.57 78.7653 103.636 78.552 104.778 78.552C105.834 78.552 106.778 78.7867 107.61 79.256C108.452 79.7253 109.167 80.3227 109.754 81.048L109.578 79ZM105.018 91.656C105.85 91.656 106.586 91.448 107.226 91.032C107.866 90.616 108.367 90.056 108.73 89.352C109.092 88.6373 109.274 87.8533 109.274 87C109.274 86.136 109.092 85.352 108.73 84.648C108.367 83.9333 107.86 83.368 107.21 82.952C106.57 82.536 105.839 82.328 105.018 82.328C104.196 82.328 103.444 82.5413 102.762 82.968C102.09 83.384 101.551 83.944 101.146 84.648C100.751 85.352 100.554 86.136 100.554 87C100.554 87.864 100.756 88.648 101.162 89.352C101.567 90.056 102.106 90.616 102.778 91.032C103.46 91.448 104.207 91.656 105.018 91.656ZM125.276 78.552C126.833 78.552 128.252 78.9307 129.532 79.688C130.812 80.4453 131.83 81.464 132.588 82.744C133.345 84.0133 133.724 85.4213 133.724 86.968C133.724 88.1307 133.505 89.224 133.068 90.248C132.63 91.272 132.022 92.1733 131.244 92.952C130.476 93.72 129.58 94.3227 128.556 94.76C127.542 95.1973 126.449 95.416 125.276 95.416C124.273 95.416 123.382 95.192 122.604 94.744C121.836 94.2853 121.19 93.6933 120.668 92.968V95H116.764V71H120.668V81C121.19 80.2747 121.836 79.688 122.604 79.24C123.382 78.7813 124.273 78.552 125.276 78.552ZM125.228 91.64C126.06 91.64 126.812 91.432 127.484 91.016C128.166 90.5893 128.71 90.024 129.116 89.32C129.521 88.616 129.724 87.832 129.724 86.968C129.724 86.1147 129.521 85.336 129.116 84.632C128.71 83.9173 128.166 83.352 127.484 82.936C126.801 82.52 126.049 82.312 125.228 82.312C124.417 82.312 123.692 82.5253 123.052 82.952C122.412 83.368 121.91 83.9333 121.548 84.648C121.185 85.352 121.004 86.1253 121.004 86.968C121.004 87.832 121.185 88.6213 121.548 89.336C121.91 90.04 122.412 90.6 123.052 91.016C123.692 91.432 124.417 91.64 125.228 91.64ZM143.335 95.416C141.863 95.416 140.519 95.0373 139.303 94.28C138.098 93.5227 137.132 92.504 136.407 91.224C135.692 89.944 135.335 88.5307 135.335 86.984C135.335 85.8213 135.543 84.7333 135.959 83.72C136.375 82.696 136.946 81.8 137.671 81.032C138.407 80.2533 139.26 79.6453 140.231 79.208C141.202 78.7707 142.236 78.552 143.335 78.552C144.583 78.552 145.724 78.8187 146.759 79.352C147.804 79.8747 148.69 80.5947 149.415 81.512C150.14 82.4293 150.668 83.4747 150.999 84.648C151.33 85.8213 151.404 87.048 151.223 88.328H139.527C139.676 88.9253 139.922 89.464 140.263 89.944C140.604 90.4133 141.036 90.792 141.559 91.08C142.082 91.3573 142.674 91.5013 143.335 91.512C144.018 91.5227 144.636 91.3627 145.191 91.032C145.756 90.6907 146.226 90.232 146.599 89.656L150.583 90.584C149.932 92.0027 148.962 93.1653 147.671 94.072C146.38 94.968 144.935 95.416 143.335 95.416ZM139.399 85.4H147.271C147.154 84.76 146.903 84.184 146.519 83.672C146.146 83.1493 145.682 82.7333 145.127 82.424C144.572 82.1147 143.975 81.96 143.335 81.96C142.695 81.96 142.103 82.1147 141.559 82.424C141.015 82.7227 140.551 83.1333 140.167 83.656C139.794 84.168 139.538 84.7493 139.399 85.4ZM153.842 95L153.826 79H157.73L157.746 80.424C158.29 79.848 158.941 79.3947 159.698 79.064C160.456 78.7227 161.272 78.552 162.146 78.552C162.733 78.552 163.32 78.6373 163.906 78.808L162.37 82.744C161.965 82.584 161.56 82.504 161.154 82.504C160.525 82.504 159.949 82.6587 159.426 82.968C158.914 83.2667 158.504 83.6773 158.194 84.2C157.896 84.712 157.746 85.2827 157.746 85.912V95H153.842ZM165.639 79H169.543V95H165.639V79ZM167.623 76.936C167.047 76.936 166.561 76.7493 166.167 76.376C165.772 75.992 165.575 75.512 165.575 74.936C165.575 74.3707 165.772 73.896 166.167 73.512C166.561 73.128 167.041 72.936 167.607 72.936C168.172 72.936 168.647 73.128 169.031 73.512C169.425 73.896 169.623 74.3707 169.623 74.936C169.623 75.512 169.431 75.992 169.047 76.376C168.663 76.7493 168.188 76.936 167.623 76.936Z" fill="white"/>
</g>
</g>
</svg>
