<svg width="225" height="225" viewBox="0 0 225 225" fill="none" xmlns="http://www.w3.org/2000/svg">
<circle cx="112.5" cy="112.5" r="112.5" fill="#101010"/>
<path d="M108.727 35.1884C108.186 35.1884 107.666 35.1044 107.166 34.9364C106.672 34.7637 106.238 34.5187 105.864 34.2014C105.491 33.8794 105.223 33.4944 105.059 33.0464L106.662 32.4584C106.728 32.645 106.861 32.8154 107.061 32.9694C107.262 33.1234 107.507 33.247 107.796 33.3404C108.086 33.4337 108.396 33.4804 108.727 33.4804C109.068 33.4804 109.385 33.429 109.679 33.3264C109.978 33.219 110.218 33.072 110.4 32.8854C110.582 32.694 110.673 32.4724 110.673 32.2204C110.673 31.9637 110.578 31.7537 110.386 31.5904C110.195 31.4224 109.95 31.2894 109.651 31.1914C109.353 31.0934 109.045 31.0187 108.727 30.9674C108.032 30.86 107.409 30.6944 106.858 30.4704C106.308 30.2464 105.871 29.936 105.549 29.5394C105.232 29.1427 105.073 28.6294 105.073 27.9994C105.073 27.4067 105.244 26.8887 105.584 26.4454C105.925 26.002 106.373 25.6567 106.928 25.4094C107.484 25.162 108.083 25.0384 108.727 25.0384C109.264 25.0384 109.782 25.1224 110.281 25.2904C110.781 25.4584 111.217 25.7034 111.59 26.0254C111.968 26.3474 112.239 26.7347 112.402 27.1874L110.792 27.7684C110.727 27.5817 110.594 27.4114 110.393 27.2574C110.193 27.1034 109.948 26.982 109.658 26.8934C109.369 26.8 109.059 26.7534 108.727 26.7534C108.396 26.7487 108.081 26.8024 107.782 26.9144C107.488 27.0217 107.248 27.1687 107.061 27.3554C106.875 27.542 106.781 27.7567 106.781 27.9994C106.781 28.312 106.868 28.5477 107.04 28.7064C107.218 28.865 107.453 28.9817 107.747 29.0564C108.041 29.1264 108.368 29.1917 108.727 29.2524C109.381 29.355 109.985 29.5277 110.54 29.7704C111.096 30.013 111.541 30.3374 111.877 30.7434C112.213 31.1447 112.381 31.637 112.381 32.2204C112.381 32.813 112.213 33.3334 111.877 33.7814C111.541 34.2247 111.096 34.57 110.54 34.8174C109.985 35.0647 109.381 35.1884 108.727 35.1884Z" fill="#8B8B8B"/>
<path d="M124.264 35.9612C123.614 35.8358 123.027 35.5896 122.503 35.2226C121.981 34.851 121.546 34.3941 121.199 33.852C120.857 33.3107 120.62 32.7161 120.488 32.0681C120.362 31.4165 120.365 30.747 120.497 30.0596C120.631 29.3677 120.876 28.745 121.235 28.1915C121.599 27.6343 122.04 27.1704 122.558 26.7998C123.082 26.4254 123.655 26.1652 124.277 26.019C124.9 25.8682 125.537 25.8555 126.188 25.9809C126.967 26.131 127.649 26.4502 128.235 26.9385C128.821 27.4222 129.272 28.0058 129.587 28.6891L127.933 29.2045C127.728 28.8178 127.442 28.4849 127.078 28.2055C126.718 27.9271 126.314 27.7446 125.865 27.658C125.443 27.5768 125.03 27.5874 124.625 27.69C124.221 27.788 123.85 27.9636 123.511 28.2167C123.174 28.4653 122.888 28.7762 122.654 29.1494C122.422 29.518 122.262 29.9292 122.174 30.3828C122.086 30.8411 122.081 31.2845 122.16 31.7132C122.244 32.1428 122.396 32.538 122.616 32.8989C122.837 33.2552 123.114 33.5558 123.448 33.8006C123.786 34.0416 124.166 34.2028 124.588 34.2841C125.046 34.3724 125.491 34.3537 125.924 34.228C126.363 34.0987 126.749 33.8928 127.084 33.6104L128.426 34.7102C127.881 35.2229 127.245 35.5971 126.52 35.8328C125.795 36.0686 125.043 36.1113 124.264 35.9612Z" fill="#8B8B8B"/>
<path d="M134.241 37.6148L137.883 28.5168L141.373 29.9139C141.867 30.1116 142.264 30.4138 142.564 30.8203C142.863 31.2268 143.047 31.6848 143.114 32.1944C143.184 32.6996 143.118 33.2035 142.916 33.7061C142.752 34.1177 142.524 34.4664 142.234 34.7523C141.949 35.0356 141.623 35.2491 141.253 35.3928C140.888 35.5383 140.507 35.6066 140.108 35.5979L140.779 40.2321L138.953 39.501L138.296 35.0384L137.276 34.6299L135.827 38.2496L134.241 37.6148ZM137.911 33.0443L139.633 33.7337C139.858 33.8239 140.086 33.85 140.318 33.8119C140.549 33.7738 140.759 33.682 140.948 33.5365C141.137 33.391 141.279 33.2012 141.372 32.9673C141.468 32.729 141.497 32.492 141.461 32.2563C141.425 32.0206 141.336 31.8091 141.195 31.6219C141.053 31.4347 140.87 31.296 140.645 31.2058L138.923 30.5163L137.911 33.0443Z" fill="#8B8B8B"/>
<path d="M151.598 45.5945C151.04 45.2363 150.587 44.7895 150.237 44.2543C149.89 43.7152 149.656 43.1295 149.536 42.4972C149.415 41.8649 149.414 41.2235 149.533 40.573C149.654 39.9185 149.903 39.2969 150.282 38.708C150.66 38.1191 151.121 37.6357 151.663 37.2576C152.208 36.8756 152.793 36.6082 153.419 36.4553C154.044 36.3024 154.673 36.2737 155.305 36.3692C155.939 36.4608 156.535 36.6858 157.093 37.044C157.654 37.4048 158.108 37.8548 158.455 38.3939C158.805 38.9292 159.04 39.5129 159.16 40.1452C159.281 40.7774 159.279 41.4195 159.154 42.0715C159.035 42.722 158.787 43.3417 158.408 43.9306C158.03 44.5195 157.568 45.0049 157.023 45.3869C156.485 45.7674 155.903 46.0342 155.277 46.1871C154.652 46.34 154.022 46.3706 153.388 46.279C152.756 46.1835 152.159 45.9553 151.598 45.5945ZM152.521 44.1577C152.882 44.3898 153.27 44.5334 153.684 44.5886C154.097 44.6438 154.507 44.6188 154.913 44.5136C155.326 44.407 155.709 44.2258 156.061 43.97C156.418 43.7168 156.722 43.3958 156.972 43.0072C157.221 42.6185 157.387 42.2093 157.469 41.7794C157.554 41.3456 157.558 40.921 157.481 40.5054C157.408 40.0924 157.26 39.7091 157.038 39.3556C156.82 39.0046 156.53 38.713 156.169 38.4809C155.808 38.2488 155.421 38.1051 155.007 38.05C154.593 37.9948 154.18 38.0205 153.767 38.1271C153.361 38.2323 152.98 38.4115 152.623 38.6648C152.27 38.9205 151.968 39.2427 151.719 39.6314C151.466 40.024 151.299 40.4352 151.217 40.8651C151.135 41.2949 151.129 41.7183 151.2 42.1352C151.277 42.5508 151.424 42.9341 151.642 43.2851C151.867 43.6347 152.16 43.9256 152.521 44.1577Z" fill="#8B8B8B"/>
<path d="M160.233 50.8302L166.996 43.7376L168.232 44.9162L162.648 50.7727L165.602 53.5889L164.423 54.825L160.233 50.8302Z" fill="#8B8B8B"/>
<path d="M170.889 60.8771L178.872 55.1925L179.863 56.5838L173.271 61.2776L175.639 64.6019L174.247 65.5926L170.889 60.8771Z" fill="#8B8B8B"/>
<path d="M185.574 86.6681C185.517 86.4322 185.549 86.2106 185.672 86.0032C185.8 85.7992 185.985 85.6681 186.225 85.6098C186.456 85.5537 186.676 85.5869 186.883 85.7095C187.091 85.8366 187.224 86.018 187.282 86.2538C187.339 86.4897 187.304 86.7118 187.177 86.9203C187.05 87.1288 186.87 87.2612 186.639 87.3173C186.399 87.3756 186.174 87.3412 185.966 87.2141C185.762 87.0859 185.631 86.9039 185.574 86.6681Z" fill="#8B8B8B"/>
<path d="M189.24 118.351C189.317 117.815 189.474 117.312 189.712 116.842C189.953 116.377 190.257 115.982 190.625 115.658C190.996 115.334 191.416 115.123 191.882 115.025L192.236 116.696C192.042 116.734 191.855 116.841 191.674 117.018C191.493 117.195 191.335 117.42 191.202 117.693C191.068 117.966 190.978 118.266 190.931 118.594C190.882 118.932 190.888 119.253 190.948 119.559C191.012 119.869 191.123 120.128 191.282 120.335C191.445 120.542 191.652 120.664 191.901 120.7C192.155 120.736 192.377 120.672 192.565 120.505C192.759 120.34 192.926 120.116 193.065 119.835C193.205 119.553 193.322 119.259 193.418 118.952C193.623 118.279 193.876 117.686 194.176 117.173C194.476 116.66 194.846 116.272 195.284 116.01C195.722 115.752 196.252 115.668 196.876 115.758C197.463 115.842 197.951 116.084 198.342 116.484C198.732 116.885 199.01 117.377 199.176 117.962C199.341 118.547 199.379 119.158 199.287 119.796C199.211 120.327 199.054 120.828 198.816 121.298C198.579 121.768 198.274 122.165 197.902 122.489C197.53 122.817 197.108 123.03 196.637 123.128L196.291 121.451C196.485 121.413 196.672 121.306 196.853 121.129C197.034 120.952 197.189 120.727 197.318 120.453C197.452 120.18 197.542 119.88 197.589 119.552C197.641 119.224 197.633 118.905 197.564 118.593C197.5 118.287 197.389 118.028 197.231 117.817C197.072 117.606 196.873 117.483 196.633 117.448C196.323 117.404 196.078 117.456 195.896 117.604C195.714 117.757 195.565 117.974 195.449 118.254C195.338 118.535 195.227 118.849 195.116 119.196C194.921 119.828 194.664 120.402 194.345 120.917C194.026 121.432 193.641 121.827 193.192 122.102C192.747 122.377 192.235 122.473 191.658 122.39C191.071 122.306 190.58 122.066 190.185 121.669C189.794 121.274 189.515 120.783 189.349 120.199C189.184 119.614 189.147 118.998 189.24 118.351Z" fill="#8B8B8B"/>
<path d="M186.264 133.62C186.481 132.994 186.808 132.448 187.246 131.982C187.688 131.518 188.202 131.153 188.788 130.886C189.373 130.624 189.995 130.474 190.655 130.436C191.318 130.404 191.98 130.502 192.642 130.731C193.308 130.962 193.889 131.294 194.386 131.727C194.886 132.167 195.282 132.67 195.575 133.235C195.871 133.807 196.047 134.411 196.103 135.048C196.164 135.686 196.086 136.318 195.869 136.944C195.61 137.694 195.197 138.324 194.63 138.834C194.068 139.346 193.426 139.709 192.705 139.923L192.43 138.213C192.842 138.065 193.212 137.83 193.54 137.509C193.867 137.192 194.106 136.818 194.255 136.386C194.396 135.98 194.444 135.57 194.4 135.154C194.36 134.741 194.239 134.348 194.037 133.977C193.839 133.607 193.572 133.28 193.236 132.996C192.904 132.713 192.52 132.496 192.083 132.345C191.642 132.193 191.204 132.125 190.768 132.142C190.331 132.164 189.918 132.258 189.53 132.425C189.146 132.593 188.809 132.824 188.519 133.119C188.232 133.42 188.019 133.773 187.878 134.179C187.726 134.62 187.681 135.064 187.743 135.51C187.809 135.962 187.958 136.374 188.19 136.746L186.91 137.918C186.48 137.305 186.2 136.623 186.07 135.872C185.94 135.12 186.005 134.37 186.264 133.62Z" fill="#8B8B8B"/>
<path d="M183.208 143.26L191.695 148.16L189.815 151.415C189.549 151.876 189.194 152.226 188.749 152.465C188.304 152.704 187.824 152.82 187.31 152.814C186.8 152.811 186.311 152.674 185.842 152.403C185.458 152.182 185.145 151.907 184.904 151.579C184.664 151.257 184.499 150.903 184.409 150.517C184.317 150.135 184.304 149.748 184.369 149.354L179.687 149.359L180.67 147.655L185.181 147.641L185.73 146.689L182.354 144.739L183.208 143.26ZM187.209 147.543L186.282 149.149C186.161 149.359 186.102 149.582 186.107 149.816C186.112 150.051 186.173 150.272 186.29 150.479C186.407 150.687 186.575 150.854 186.793 150.98C187.015 151.108 187.246 151.171 187.484 151.169C187.723 151.167 187.945 151.109 188.15 150.996C188.355 150.883 188.519 150.721 188.64 150.511L189.568 148.904L187.209 147.543Z" fill="#8B8B8B"/>
<path d="M172.839 159.304C173.273 158.803 173.78 158.418 174.359 158.148C174.942 157.882 175.555 157.734 176.198 157.704C176.841 157.675 177.476 157.765 178.103 157.975C178.734 158.188 179.314 158.523 179.843 158.982C180.372 159.44 180.785 159.965 181.082 160.556C181.382 161.149 181.564 161.767 181.626 162.407C181.688 163.048 181.627 163.674 181.443 164.286C181.262 164.901 180.954 165.459 180.521 165.96C180.083 166.464 179.573 166.85 178.99 167.117C178.411 167.386 177.8 167.536 177.157 167.565C176.514 167.595 175.878 167.501 175.251 167.285C174.624 167.075 174.046 166.741 173.517 166.282C172.988 165.824 172.573 165.298 172.272 164.704C171.972 164.117 171.791 163.503 171.729 162.862C171.667 162.221 171.726 161.594 171.907 160.979C172.091 160.367 172.402 159.808 172.839 159.304ZM174.13 160.423C173.849 160.747 173.651 161.11 173.538 161.512C173.424 161.914 173.391 162.323 173.437 162.74C173.484 163.163 173.609 163.568 173.812 163.954C174.012 164.343 174.286 164.689 174.635 164.992C174.984 165.294 175.366 165.517 175.78 165.659C176.197 165.805 176.617 165.869 177.039 165.852C177.458 165.838 177.859 165.747 178.24 165.577C178.619 165.411 178.949 165.166 179.23 164.842C179.511 164.517 179.708 164.154 179.822 163.752C179.935 163.35 179.969 162.938 179.922 162.514C179.875 162.098 179.752 161.694 179.552 161.305C179.349 160.919 179.073 160.575 178.724 160.273C178.372 159.967 177.988 159.743 177.575 159.601C177.161 159.458 176.742 159.392 176.32 159.403C175.898 159.419 175.497 159.511 175.119 159.677C174.741 159.85 174.411 160.098 174.13 160.423Z" fill="#8B8B8B"/>
<path d="M166.428 167.107L172.486 174.81L171.143 175.866L166.141 169.505L162.933 172.028L161.877 170.685L166.428 167.107Z" fill="#8B8B8B"/>
<path d="M154.967 176.225L159.457 184.935L157.939 185.718L154.231 178.526L150.604 180.396L149.821 178.877L154.967 176.225Z" fill="#8B8B8B"/>
<path d="M127.348 187.089C127.59 187.066 127.805 187.13 127.992 187.281C128.176 187.437 128.28 187.638 128.303 187.884C128.326 188.121 128.262 188.334 128.111 188.521C127.955 188.71 127.757 188.815 127.515 188.839C127.274 188.862 127.059 188.795 126.87 188.64C126.682 188.484 126.577 188.288 126.554 188.051C126.531 187.805 126.597 187.588 126.752 187.4C126.908 187.216 127.107 187.113 127.348 187.089Z" fill="#8B8B8B"/>
<path d="M95.4658 186.21C95.9853 186.362 96.4608 186.589 96.8926 186.891C97.3186 187.196 97.666 187.553 97.9348 187.963C98.2023 188.377 98.3513 188.822 98.3818 189.298L96.6781 189.411C96.668 189.213 96.5884 189.012 96.4392 188.808C96.29 188.604 96.0898 188.416 95.8385 188.245C95.5872 188.074 95.3026 187.942 94.9846 187.848C94.6578 187.752 94.3388 187.712 94.0278 187.728C93.711 187.747 93.439 187.82 93.2118 187.948C92.9833 188.08 92.8335 188.267 92.7625 188.509C92.6902 188.755 92.7228 188.984 92.8604 189.194C92.9966 189.409 93.1942 189.606 93.4532 189.784C93.7122 189.962 93.9866 190.121 94.2767 190.26C94.9136 190.558 95.4647 190.893 95.9299 191.263C96.3952 191.633 96.7264 192.054 96.9236 192.525C97.1163 192.995 97.124 193.532 96.9465 194.137C96.7795 194.705 96.4701 195.154 96.0183 195.484C95.5666 195.813 95.0394 196.018 94.4369 196.099C93.8344 196.18 93.2242 196.13 92.6063 195.948C92.0913 195.797 91.618 195.571 91.1862 195.269C90.7544 194.967 90.4048 194.609 90.1373 194.195C89.8653 193.779 89.7148 193.331 89.6856 192.851L91.394 192.747C91.4041 192.945 91.4838 193.146 91.6329 193.35C91.7821 193.554 91.983 193.74 92.2356 193.906C92.4869 194.077 92.7715 194.209 93.0894 194.303C93.406 194.401 93.7234 194.438 94.0415 194.415C94.3538 194.394 94.6259 194.321 94.8576 194.195C95.0892 194.068 95.2393 193.888 95.3076 193.656C95.3957 193.356 95.3793 193.105 95.2583 192.904C95.1329 192.702 94.9396 192.524 94.6786 192.369C94.4162 192.219 94.1212 192.065 93.7935 191.905C93.1955 191.622 92.6643 191.287 92.1999 190.897C91.7354 190.508 91.3992 190.071 91.1911 189.587C90.9818 189.107 90.9593 188.588 91.1237 188.028C91.2907 187.459 91.5984 187.007 92.047 186.672C92.4943 186.341 93.0192 186.136 93.6218 186.055C94.2243 185.974 94.839 186.025 95.4658 186.21Z" fill="#8B8B8B"/>
<path d="M80.7759 181.091C81.3649 181.394 81.8587 181.796 82.2575 182.296C82.6541 182.799 82.9425 183.36 83.1227 183.978C83.2988 184.594 83.3587 185.231 83.3026 185.89C83.2402 186.551 83.0486 187.192 82.7278 187.815C82.4049 188.441 81.9935 188.969 81.4935 189.399C80.9873 189.831 80.4333 190.152 79.8317 190.362C79.2238 190.573 78.6008 190.662 77.9625 190.627C77.3222 190.596 76.7075 190.428 76.1185 190.125C75.4133 189.761 74.8486 189.263 74.4244 188.629C73.9981 188 73.73 187.313 73.6202 186.569L75.3519 186.54C75.4405 186.969 75.6203 187.369 75.8912 187.74C76.158 188.108 76.4946 188.397 76.9011 188.607C77.2827 188.803 77.6821 188.91 78.0994 188.925C78.5145 188.945 78.9202 188.881 79.3165 188.734C79.7106 188.59 80.0723 188.372 80.4015 188.08C80.7286 187.792 80.998 187.443 81.2097 187.032C81.4235 186.617 81.5529 186.193 81.5979 185.759C81.6388 185.324 81.6044 184.902 81.4946 184.493C81.3827 184.089 81.2015 183.723 80.9509 183.394C80.6941 183.067 80.3748 182.806 79.9932 182.609C79.5784 182.395 79.1456 182.287 78.6948 182.286C78.2377 182.287 77.8088 182.375 77.4079 182.552L76.4301 181.118C77.098 180.78 77.813 180.6 78.575 180.578C79.3371 180.556 80.0707 180.727 80.7759 181.091Z" fill="#8B8B8B"/>
<path d="M71.669 176.693L65.611 184.397L62.6563 182.073C62.2381 181.744 61.9425 181.342 61.7694 180.868C61.5964 180.393 61.5493 179.902 61.6281 179.394C61.7041 178.89 61.9094 178.425 62.244 178C62.5181 177.651 62.8347 177.381 63.1938 177.188C63.5465 176.996 63.9201 176.884 64.3149 176.85C64.706 176.813 65.0915 176.855 65.4715 176.976L66.1336 172.34L67.6798 173.556L67.0523 178.023L67.9162 178.702L70.3264 175.637L71.669 176.693ZM66.8604 180.045L65.4023 178.898C65.2115 178.748 64.9998 178.659 64.767 178.63C64.5343 178.602 64.3068 178.63 64.0845 178.717C63.8622 178.803 63.6731 178.945 63.5174 179.143C63.3587 179.345 63.2636 179.564 63.232 179.801C63.2005 180.037 63.2261 180.265 63.3088 180.484C63.3915 180.704 63.5283 180.889 63.719 181.039L65.1772 182.185L66.8604 180.045Z" fill="#8B8B8B"/>
<path d="M57.2639 164.147C57.6978 164.648 58.0071 165.204 58.1916 165.816C58.3725 166.431 58.4318 167.059 58.3695 167.7C58.3071 168.34 58.1275 168.956 57.8305 169.547C57.5299 170.141 57.1152 170.667 56.5861 171.125C56.0571 171.584 55.4791 171.918 54.8521 172.128C54.2215 172.341 53.5847 172.432 52.9417 172.403C52.2987 172.373 51.6874 172.224 51.1079 171.954C50.5249 171.687 50.0164 171.304 49.5825 170.803C49.1454 170.299 48.8364 169.739 48.6555 169.124C48.471 168.512 48.4099 167.886 48.4723 167.245C48.5346 166.604 48.7176 165.989 49.0212 165.398C49.3182 164.808 49.7312 164.283 50.2602 163.825C50.7892 163.366 51.369 163.031 51.9996 162.818C52.6236 162.604 53.2571 162.512 53.9001 162.542C54.5431 162.571 55.1561 162.719 55.7391 162.986C56.3186 163.256 56.8269 163.643 57.2639 164.147ZM55.9731 165.265C55.6919 164.941 55.3606 164.694 54.979 164.524C54.5974 164.355 54.1971 164.263 53.7779 164.25C53.3521 164.236 52.9339 164.302 52.5231 164.448C52.1093 164.59 51.7279 164.813 51.3787 165.116C51.0295 165.418 50.755 165.764 50.5552 166.153C50.3517 166.546 50.2284 166.952 50.1851 167.372C50.1387 167.789 50.1723 168.199 50.2858 168.6C50.3963 168.999 50.5921 169.36 50.8733 169.684C51.1544 170.009 51.4858 170.256 51.8673 170.425C52.2489 170.595 52.6526 170.687 53.0783 170.701C53.4975 170.714 53.914 170.65 54.3278 170.507C54.7385 170.361 55.1185 170.137 55.4676 169.834C55.8203 169.529 56.0966 169.181 56.2965 168.792C56.4964 168.403 56.6212 167.998 56.6711 167.578C56.7144 167.158 56.6808 166.749 56.5704 166.35C56.4533 165.952 56.2542 165.59 55.9731 165.265Z" fill="#8B8B8B"/>
<path d="M50.4531 156.69L41.966 161.59L41.112 160.111L48.1199 156.065L46.0794 152.531L47.5586 151.677L50.4531 156.69Z" fill="#8B8B8B"/>
<path d="M43.0589 144.048L33.7978 147.254L33.2392 145.639L40.8862 142.993L39.5514 139.136L41.1655 138.578L43.0589 144.048Z" fill="#8B8B8B"/>
<path d="M36.2353 115.165C36.2238 115.407 36.13 115.611 35.954 115.775C35.7735 115.935 35.5598 116.009 35.3127 115.997C35.075 115.986 34.8739 115.892 34.7094 115.716C34.5451 115.535 34.4688 115.324 34.4803 115.081C34.4919 114.839 34.588 114.636 34.7687 114.471C34.9494 114.307 35.1586 114.231 35.3963 114.242C35.6434 114.254 35.849 114.35 36.0133 114.531C36.1729 114.711 36.2469 114.923 36.2353 115.165Z" fill="#8B8B8B"/>
<path d="M41.6437 83.7322C41.4188 84.2246 41.1262 84.663 40.766 85.0475C40.4034 85.4257 40.0003 85.7187 39.5565 85.9265C39.1086 86.1323 38.6469 86.2164 38.1715 86.1789L38.3026 84.4765C38.4995 84.4946 38.7097 84.4444 38.9331 84.3258C39.1566 84.2073 39.3708 84.0358 39.5759 83.8114C39.781 83.587 39.9524 83.3241 40.09 83.0227C40.2315 82.7128 40.3167 82.4028 40.3454 82.0927C40.3719 81.7765 40.338 81.4968 40.2438 81.2537C40.1454 81.0087 39.9815 80.8338 39.7523 80.7291C39.5188 80.6225 39.2881 80.6223 39.06 80.7285C38.8277 80.8327 38.6049 81.0003 38.3917 81.2313C38.1785 81.4623 37.9826 81.7114 37.8041 81.9787C37.4176 82.5666 37.0081 83.0645 36.5756 83.4724C36.1431 83.8802 35.6796 84.1482 35.185 84.2763C34.6923 84.4002 34.1595 84.3313 33.5864 84.0696C33.0473 83.8234 32.6469 83.4533 32.3851 82.9592C32.1234 82.4652 31.9953 81.9142 32.0011 81.3063C32.0068 80.6984 32.1434 80.1015 32.4109 79.5157C32.6339 79.0276 32.9254 78.5913 33.2857 78.2069C33.6459 77.8224 34.0501 77.5273 34.4981 77.3215C34.948 77.1114 35.4128 77.0261 35.8924 77.0656L35.752 78.7714C35.5551 78.7533 35.3449 78.8035 35.1215 78.9221C34.898 79.0407 34.6859 79.2131 34.485 79.4395C34.2799 79.6639 34.1086 79.9268 33.9709 80.2282C33.829 80.5276 33.747 80.8365 33.7248 81.1547C33.7003 81.4667 33.7342 81.7464 33.8265 81.9937C33.9187 82.241 34.0752 82.4151 34.2959 82.5159C34.5804 82.6458 34.8306 82.6652 35.0466 82.574C35.2646 82.4786 35.4687 82.3127 35.6587 82.0763C35.8445 81.838 36.0396 81.568 36.2441 81.2663C36.6089 80.7147 37.017 80.2367 37.4684 79.8323C37.9199 79.428 38.4 79.1573 38.9089 79.0203C39.4136 78.8814 39.9312 78.9331 40.4618 79.1755C41.0009 79.4217 41.4045 79.7906 41.6724 80.2824C41.9361 80.7722 42.0651 81.321 42.0594 81.9289C42.0536 82.5368 41.9151 83.1379 41.6437 83.7322Z" fill="#8B8B8B"/>
<path d="M48.801 69.9202C48.4166 70.46 47.9488 70.8917 47.3975 71.2153C46.8425 71.5362 46.2463 71.7418 45.609 71.8323C44.9744 71.9189 44.335 71.8875 43.6909 71.7382C43.0456 71.5824 42.4379 71.3014 41.8677 70.8954C41.2937 70.4866 40.8295 70.0042 40.4749 69.4481C40.1193 68.8855 39.8806 68.2916 39.7587 67.6663C39.6357 67.0345 39.637 66.4052 39.7625 65.7784C39.8842 65.1489 40.1372 64.5643 40.5216 64.0245C40.9818 63.3783 41.5556 62.8903 42.243 62.5606C42.9266 62.2281 43.6446 62.0605 44.397 62.0578L44.179 63.7759C43.7418 63.8026 43.3204 63.9236 42.915 64.139C42.5122 64.3507 42.1782 64.6427 41.9129 65.0153C41.6639 65.365 41.5019 65.7452 41.4271 66.156C41.3485 66.5641 41.354 66.9747 41.4436 67.388C41.5293 67.7985 41.6935 68.1875 41.9359 68.555C42.1746 68.9197 42.4821 69.2361 42.8585 69.5041C43.2386 69.7748 43.64 69.9632 44.0628 70.0695C44.4883 70.172 44.9109 70.1979 45.3307 70.1474C45.7467 70.0942 46.1352 69.967 46.4962 69.7657C46.8561 69.558 47.1606 69.2792 47.4097 68.9295C47.6803 68.5494 47.8485 68.1363 47.914 67.6903C47.9784 67.2377 47.9518 66.8005 47.834 66.3786L49.392 65.6147C49.6317 66.3239 49.7082 67.0573 49.6214 67.8147C49.5346 68.5722 49.2611 69.274 48.801 69.9202Z" fill="#8B8B8B"/>
<path d="M54.4498 61.532L47.687 54.4394L50.4076 51.8454C50.7926 51.4783 51.2322 51.2428 51.7265 51.1391C52.2208 51.0353 52.7137 51.0586 53.2053 51.2089C53.6936 51.3559 54.1245 51.6252 54.4981 52.017C54.804 52.3379 55.0267 52.6898 55.1661 53.0727C55.3057 53.449 55.3642 53.8349 55.3415 54.2305C55.3223 54.6228 55.2259 54.9984 55.0523 55.3574L59.5463 56.6724L58.1228 58.0298L53.7907 56.7731L52.9953 57.5315L55.686 60.3533L54.4498 61.532ZM51.8167 56.2954L53.1592 55.0153C53.3348 54.8478 53.4534 54.6509 53.5149 54.4246C53.5764 54.1983 53.5802 53.969 53.5263 53.7367C53.4724 53.5044 53.3585 53.297 53.1846 53.1146C53.0075 52.9289 52.8042 52.8035 52.5747 52.7387C52.3452 52.6738 52.116 52.6667 51.887 52.7173C51.658 52.768 51.4557 52.8771 51.2801 53.0445L49.9376 54.3246L51.8167 56.2954Z" fill="#8B8B8B"/>
<path d="M68.9187 49.059C68.3612 49.4173 67.7664 49.6442 67.1344 49.7397C66.4999 49.8313 65.87 49.8007 65.2447 49.6478C64.6195 49.4949 64.0356 49.2294 63.4931 48.8513C62.948 48.4694 62.4863 47.9839 62.1079 47.3951C61.7294 46.8062 61.4809 46.1865 61.3624 45.536C61.2414 44.8815 61.2412 44.2381 61.3618 43.6059C61.4825 42.9736 61.7175 42.3899 62.067 41.8546C62.4139 41.3155 62.8661 40.8668 63.4236 40.5085C63.985 40.1477 64.5829 39.9215 65.2175 39.8299C65.8495 39.7344 66.4781 39.7631 67.1034 39.916C67.7287 40.0689 68.3118 40.3376 68.8529 40.7221C69.3954 41.1001 69.8559 41.5836 70.2344 42.1725C70.6128 42.7613 70.8626 43.383 70.9836 44.0375C71.106 44.6855 71.1069 45.3256 70.9863 45.9579C70.8656 46.5901 70.6318 47.1759 70.2849 47.715C69.9355 48.2502 69.48 48.6982 68.9187 49.059ZM67.9952 47.6222C68.3564 47.39 68.6481 47.0972 68.8702 46.7437C69.0923 46.3901 69.2398 46.0068 69.3128 45.5938C69.3872 45.1744 69.3813 44.751 69.2953 44.3237C69.2132 43.8938 69.0473 43.4845 68.7975 43.0959C68.5477 42.7072 68.2444 42.3863 67.8875 42.133C67.5281 41.8759 67.1434 41.6959 66.7335 41.5933C66.3275 41.4881 65.9175 41.463 65.5037 41.5182C65.0937 41.5709 64.7082 41.7133 64.347 41.9454C63.9858 42.1775 63.6942 42.4703 63.472 42.8239C63.2499 43.1774 63.1017 43.5639 63.0273 43.9834C62.9544 44.3964 62.9589 44.8178 63.041 45.2477C63.127 45.675 63.2949 46.083 63.5447 46.4716C63.797 46.8642 64.1016 47.1871 64.4585 47.4404C64.8154 47.6936 65.1981 47.8748 65.6067 47.984C66.0166 48.0866 66.4265 48.1116 66.8365 48.059C67.2478 47.9999 67.6341 47.8543 67.9952 47.6222Z" fill="#8B8B8B"/>
<path d="M77.2684 43.3786L73.6261 34.2806L75.2118 33.6458L78.2193 41.1581L82.0079 39.6414L82.6427 41.227L77.2684 43.3786Z" fill="#8B8B8B"/>
<path d="M90.8342 37.8589L88.9795 28.236L90.6566 27.9128L92.1881 35.8586L96.1953 35.0862L96.5185 36.7634L90.8342 37.8589Z" fill="#8B8B8B"/>
<circle cx="113" cy="112" r="65" fill="#FFF455"/>
<path fill-rule="evenodd" clip-rule="evenodd" d="M125.358 85.6533C126.16 85.4558 127.02 85.5816 127.75 86.0029C128.479 86.4242 129.019 87.1065 129.249 87.8998L137.834 117.509C138.313 119.161 137.347 120.834 135.677 121.245C134.007 121.656 132.265 120.65 131.786 118.998L125.295 96.6096L101.526 137.778C100.684 139.236 98.7693 139.708 97.2497 138.83C95.7302 137.953 95.1811 136.059 96.0233 134.601L119.792 93.4326L97.1569 99.0051C95.4869 99.4163 93.7448 98.4105 93.2658 96.7586C92.7869 95.1067 93.7524 93.4343 95.4225 93.0231L125.358 85.6533Z" fill="black"/>
</svg>
