<svg width="16" height="15" viewBox="0 0 16 15" fill="none" xmlns="http://www.w3.org/2000/svg">
<path d="M0.354767 5.339V10.6875C0.354767 11.6323 0.652546 12.5385 1.1826 13.2066C1.71265 13.8747 2.43155 14.25 3.18116 14.25H12.6025C13.3521 14.25 14.071 13.8747 14.601 13.2066C15.1311 12.5385 15.4288 11.6323 15.4288 10.6875V5.339L8.27808 9.3955C8.15662 9.46432 8.02497 9.4999 7.8918 9.4999C7.75864 9.4999 7.62699 9.46432 7.50553 9.3955L0.354767 5.339ZM0.424484 2.774L7.8918 7.011L15.3591 2.774C15.2173 1.98615 14.8672 1.28248 14.3663 0.778428C13.8654 0.274379 13.2434 -0.000109127 12.6025 3.25457e-08H3.18116C2.5402 -0.000109127 1.91825 0.274379 1.41735 0.778428C0.916452 1.28248 0.566349 1.98615 0.424484 2.774Z" fill="white"/>
</svg>
