<svg width="330" height="65" viewBox="0 0 330 65" fill="none" xmlns="http://www.w3.org/2000/svg">
<path d="M257.391 53.1356C257.391 56.2076 259.67 58.6032 262.872 58.6032C266.073 58.6032 268.477 56.2076 268.477 53.0735V46.0068H272.294V53.1334C272.294 58.479 268.23 62.4116 262.934 62.4116C257.638 62.4116 253.573 58.479 253.573 53.1334V31.383C253.573 25.9155 257.638 22.0449 262.934 22.0449C268.23 22.0449 272.294 25.9155 272.294 31.383V38.3877H268.477V31.383C268.477 28.2489 266.076 25.8534 262.872 25.8534C259.668 25.8534 257.391 28.2489 257.391 31.383V53.1334V53.1356Z" fill="#1E1E1E"/>
<path d="M278.269 62.2303V22.2939H282.086V62.2303H278.269Z" fill="#1E1E1E"/>
<path d="M298.53 26.1024V62.2303H294.713V26.1024H286.397V22.2939H306.846V26.1024H298.53Z" fill="#1E1E1E"/>
<path d="M325.873 22.2314H330L321.5 49.9418V62.1679H317.682V49.9418L309.183 22.2314H313.247L319.59 44.288L325.871 22.2314H325.873Z" fill="#1E1E1E"/>
<path d="M100.175 62.2284V22.292H110.523C116.866 22.292 121.424 26.839 121.424 33.1672V51.2932C121.424 57.9297 116.928 62.2305 110.523 62.2305H100.175V62.2284ZM107.875 29.971V54.7314H110.461C112.308 54.7314 113.725 53.3184 113.725 51.1669V33.2271C113.725 31.3839 112.555 29.971 110.461 29.971H107.875Z" fill="#1E1E1E"/>
<path d="M135.34 62.7811C128.997 62.7811 124.377 58.6022 124.377 51.8438V32.551C124.377 25.7304 128.995 21.6758 135.34 21.6758C141.686 21.6758 146.242 25.7304 146.242 32.551V51.8438C146.242 58.6643 141.684 62.7811 135.34 62.7811ZM138.542 32.551C138.542 30.7699 137.372 29.3569 135.278 29.3569C133.184 29.3569 132.076 30.8319 132.076 32.551V51.8438C132.076 53.6249 133.186 55.0999 135.278 55.0999C137.37 55.0999 138.542 53.7491 138.542 51.8438V32.551Z" fill="#1E1E1E"/>
<path d="M170.877 51.8456C170.877 58.6661 166.319 62.7829 159.975 62.7829C153.632 62.7829 149.012 58.604 149.012 51.8456V22.292H156.711V51.8456C156.711 53.7509 157.759 55.1017 159.913 55.1017C162.068 55.1017 163.177 53.7509 163.177 51.8456V22.292H170.877V51.8456Z" fill="#1E1E1E"/>
<path d="M171.924 62.2284L179.808 22.292H190.831L198.715 62.2284H190.771L189.231 53.3184H181.346L179.868 62.2284H171.924ZM182.703 45.9456H187.876L185.291 31.5059L182.705 45.9456H182.703Z" fill="#1E1E1E"/>
<path d="M218.237 54.5472V62.2284H200.992V22.292H208.692V54.5494H218.239L218.237 54.5472Z" fill="#1E1E1E"/>
<path d="M219.469 62.2284L227.353 22.292H238.376L246.26 62.2284H238.316L236.778 53.3184H228.893L227.415 62.2284H219.471H219.469ZM230.248 45.9456H235.421L232.836 31.5059L230.25 45.9456H230.248Z" fill="#1E1E1E"/>
<path d="M74.5982 11.9071L43.5834 11.4896C43.8152 12.226 43.9396 13.0096 43.9396 13.8231C43.9396 15.0262 43.6671 16.1651 43.1778 17.182L59.8515 17.1477C59.8515 17.1477 54.5211 22.5639 56.4202 29.6285L33.7058 29.6456C33.7058 29.6456 23.6565 29.6863 20.3153 17.2655L29.0921 17.197C28.5985 16.1758 28.3239 15.0326 28.3239 13.8231C28.3239 13.0417 28.4397 12.286 28.6543 11.5752L16.0407 11.2263C16.0407 11.2263 13.2038 10.6825 13.0493 8.23775L12.9549 0H7.47635L7.36261 10.6483C7.36261 10.6483 6.1609 9.8883 5.90554 8.40473V0H0V8.37904C0 8.37904 0.0858367 16.0045 8.09008 16.9465C8.09008 17.1242 13.4613 17.1156 13.4613 17.1156C13.4613 17.1156 14.3347 17.2633 14.5257 17.9976C14.5257 17.9976 16.7553 33.4712 33.9569 35.4086L60.9524 35.5606C60.9524 35.5606 67.5747 35.8561 70.0704 42.1757C70.0704 42.1757 73.8257 52.2181 64.3193 56.5532C64.3193 56.5532 57.0619 57.3132 50.8967 46.3909L31.2895 55.1296C31.2895 55.1296 34.0684 61.5113 48.8967 62.9841C52.004 63.56 55.7035 64.016 59.8816 64.0823C64.8386 64.1616 69.1755 63.6735 72.697 63.0398C72.697 63.0398 91.2612 61.6183 95.0251 40.4823C95.0251 40.4823 97.8878 17.0749 74.5982 11.9071ZM44.1778 55.9195L48.6778 53.6374L52.2615 57.6471L44.1778 55.9195ZM68.036 31.4482L62.2442 29.1789C62.2442 29.1789 60.6412 20.4831 69.3429 17.2548C69.3429 17.2548 75.9909 15.2809 84.7977 24.42C84.7977 24.42 75.051 23.5808 68.036 31.4482ZM73.3214 57.1441L76.7012 50.133C79.3042 49.4351 82.8364 52.338 82.8364 52.338C80.9823 55.0825 73.3214 57.1441 73.3214 57.1441ZM86.7612 47.427L77.1862 43.7663L72.697 35.1432C72.697 35.1432 78.9995 26.4559 88.3471 32.3023C88.6325 32.7112 91.39 37.8299 86.7612 47.427Z" fill="black"/>
<path d="M40.0341 13.8228C40.0341 15.9743 38.2873 17.719 36.1307 17.719C33.9741 17.719 32.2273 15.9743 32.2273 13.8228C32.2273 11.6713 33.9762 9.92871 36.1307 9.92871C38.2852 9.92871 40.0341 11.6735 40.0341 13.8228Z" fill="black"/>
<path d="M40.0341 13.8228C40.0341 15.9743 38.2873 17.719 36.1307 17.719C33.9741 17.719 32.2273 15.9743 32.2273 13.8228C32.2273 11.6713 33.9762 9.92871 36.1307 9.92871C38.2852 9.92871 40.0341 11.6735 40.0341 13.8228Z" fill="black"/>
<path d="M48.2186 23.1695C48.2186 25.321 46.4718 27.0657 44.3152 27.0657C42.1586 27.0657 40.4118 25.321 40.4118 23.1695C40.4118 21.018 42.1607 19.2754 44.3152 19.2754C46.4697 19.2754 48.2186 21.0201 48.2186 23.1695Z" fill="black"/>
</svg>
