<svg width="43" height="44" viewBox="0 0 43 44" fill="none" xmlns="http://www.w3.org/2000/svg">
<path d="M25.5581 0.400721L24.2677 0.216174C20.3897 -0.354405 16.4324 0.210073 12.8572 1.8438C9.28202 3.47753 6.23618 6.1132 4.07481 9.44353C1.77516 12.6269 0.404278 16.4073 0.119933 20.3496C-0.164411 24.2918 0.649334 28.2358 2.46752 31.7276C2.6536 32.0776 2.76945 32.4618 2.80831 32.8578C2.84718 33.2539 2.80829 33.6539 2.6939 34.0344C1.76575 37.2871 0.905513 40.5628 0 44L1.13189 43.654C4.188 42.8235 7.2441 41.993 10.3002 41.2318C10.9453 41.0951 11.6157 41.1594 12.2244 41.4163C14.9663 42.78 17.9627 43.5302 21.0125 43.6166C24.0624 43.703 27.0951 43.1237 29.9071 41.9174C32.7191 40.7112 35.2454 38.906 37.3164 36.623C39.3874 34.34 40.9553 31.6319 41.9147 28.6806C42.8742 25.7293 43.203 22.603 42.8791 19.5115C42.5553 16.42 41.5863 13.4349 40.0371 10.7565C38.488 8.07805 36.3945 5.76826 33.8972 3.98215C31.3999 2.19603 28.5566 0.974904 25.5581 0.400721ZM31.2628 30.6665C30.4401 31.4171 29.4368 31.9321 28.3551 32.159C27.2735 32.3859 26.1522 32.3167 25.1053 31.9583C20.3617 30.5972 16.2463 27.5643 13.4921 23.3999C12.4401 21.9271 11.5944 20.3122 10.9793 18.6017C10.6462 17.6092 10.5862 16.5428 10.8057 15.518C11.0251 14.4932 11.5158 13.5492 12.2244 12.7885C12.5694 12.3398 13.039 12.0074 13.572 11.8346C14.1049 11.6618 14.6767 11.6566 15.2126 11.8196C15.6654 11.9349 15.9823 12.6039 16.3898 13.1114C16.7203 14.0641 17.1074 14.9961 17.5443 15.9027C17.8758 16.3652 18.0142 16.9426 17.9294 17.5088C17.8446 18.075 17.5434 18.584 17.0916 18.9246C16.0729 19.8474 16.2313 20.6086 16.9557 21.6467C18.5572 23.9978 20.767 25.8503 23.3396 26.9986C24.064 27.3215 24.6073 27.3907 25.0827 26.6295C25.2864 26.3296 25.5581 26.0758 25.7845 25.799C27.0975 24.115 26.69 24.1381 28.7727 25.0608C29.436 25.3446 30.0789 25.6768 30.6969 26.0528C31.3081 26.4219 32.2363 26.814 32.3721 27.3677C32.5028 27.9683 32.4684 28.594 32.2727 29.176C32.077 29.758 31.7276 30.2737 31.2628 30.6665Z" fill="#494947"/>
</svg>
