<svg width="46" height="46" viewBox="0 0 46 46" fill="none" xmlns="http://www.w3.org/2000/svg">
<path d="M25.3644 0C27.9518 0.00689983 29.265 0.0206995 30.3989 0.0528987L30.8451 0.0689983C31.3602 0.0873978 31.8685 0.110397 32.4826 0.137997C34.9296 0.252994 36.5994 0.639385 38.0644 1.20747C39.5823 1.79166 40.861 2.58284 42.1398 3.85931C43.3097 5.00866 44.2147 6.39953 44.7915 7.93481C45.3596 9.39987 45.746 11.0696 45.861 13.5191C45.8886 14.1309 45.9116 14.6391 45.93 15.1566L45.9438 15.6028C45.9783 16.7344 45.9921 18.0477 45.9967 20.6351L45.999 22.3509V25.3638C46.0046 27.0414 45.987 28.719 45.9461 30.3961L45.9323 30.8423C45.9139 31.3597 45.8909 31.868 45.8633 32.4798C45.7483 34.9293 45.3573 36.5967 44.7915 38.0641C44.2147 39.5994 43.3097 40.9902 42.1398 42.1396C40.9905 43.3096 39.5996 44.2146 38.0644 44.7914C36.5994 45.3595 34.9296 45.7459 32.4826 45.8609L30.8451 45.9299L30.3989 45.9437C29.265 45.9759 27.9518 45.992 25.3644 45.9966L23.6487 45.9989H20.6382C18.9599 46.0048 17.2815 45.9872 15.6037 45.946L15.1575 45.9322C14.6116 45.9115 14.0657 45.8877 13.52 45.8609C11.0729 45.7459 9.40323 45.3595 7.93591 44.7914C6.40149 44.2143 5.01147 43.3093 3.86281 42.1396C2.69205 40.9905 1.78627 39.5996 1.20875 38.0641C0.640676 36.599 0.254295 34.9293 0.139301 32.4798L0.0703046 30.8423L0.0588055 30.3961C0.0164095 28.719 -0.00275824 27.0414 0.00130817 25.3638V20.6351C-0.00505767 18.9575 0.0118099 17.2799 0.0519058 15.6028L0.0680049 15.1566C0.086404 14.6391 0.109403 14.1309 0.137001 13.5191C0.251996 11.0696 0.638376 9.40217 1.20645 7.93481C1.78532 6.3989 2.69269 5.00798 3.86511 3.85931C5.01311 2.6899 6.40232 1.78493 7.93591 1.20747C9.40323 0.639385 11.0707 0.252994 13.52 0.137997C14.1318 0.110397 14.6424 0.0873978 15.1575 0.0689983L15.6037 0.0551985C17.2808 0.0143349 18.9583 -0.00329972 20.6359 0.00229978L25.3644 0ZM23.0001 11.4997C19.9503 11.4997 17.0254 12.7113 14.8688 14.8679C12.7123 17.0245 11.5007 19.9495 11.5007 22.9994C11.5007 26.0494 12.7123 28.9744 14.8688 31.131C17.0254 33.2876 19.9503 34.4992 23.0001 34.4992C26.05 34.4992 28.9749 33.2876 31.1315 31.131C33.288 28.9744 34.4996 26.0494 34.4996 22.9994C34.4996 19.9495 33.288 17.0245 31.1315 14.8679C28.9749 12.7113 26.05 11.4997 23.0001 11.4997ZM23.0001 16.0996C23.9062 16.0995 24.8035 16.2778 25.6406 16.6244C26.4778 16.971 27.2385 17.4791 27.8793 18.1197C28.5201 18.7603 29.0284 19.5209 29.3753 20.3579C29.7222 21.195 29.9008 22.0922 29.9009 22.9983C29.9011 23.9044 29.7228 24.8017 29.3762 25.6388C29.0296 26.476 28.5215 27.2367 27.8809 27.8776C27.2403 28.5184 26.4798 29.0267 25.6427 29.3736C24.8057 29.7205 23.9085 29.8991 23.0024 29.8993C21.1725 29.8993 19.4176 29.1723 18.1237 27.8784C16.8297 26.5844 16.1028 24.8294 16.1028 22.9994C16.1028 21.1695 16.8297 19.4145 18.1237 18.1205C19.4176 16.8266 21.1725 16.0996 23.0024 16.0996M35.0768 8.04981C34.3144 8.04981 33.5831 8.3527 33.044 8.89185C32.5049 9.43101 32.202 10.1623 32.202 10.9247C32.202 11.6872 32.5049 12.4185 33.044 12.9576C33.5831 13.4968 34.3144 13.7997 35.0768 13.7997C35.8393 13.7997 36.5705 13.4968 37.1097 12.9576C37.6488 12.4185 37.9517 11.6872 37.9517 10.9247C37.9517 10.1623 37.6488 9.43101 37.1097 8.89185C36.5705 8.3527 35.8393 8.04981 35.0768 8.04981Z" fill="#494947"/>
</svg>
